<svg id="Groupe_272" data-name="Groupe 272" xmlns="http://www.w3.org/2000/svg" width="29.087" height="29.087" viewBox="0 0 29.087 29.087">
  <g id="Groupe_271" data-name="Groupe 271">
    <g id="Groupe_270" data-name="Groupe 270">
      <path id="Tracé_72" data-name="Tracé 72" d="M26.2,196.675a2.324,2.324,0,0,0-2.112,1.165v-1H21.743c.03.661,0,7.054,0,7.054h2.344v-3.941a1.58,1.58,0,0,1,.077-.572,1.284,1.284,0,0,1,1.2-.858c.848,0,1.187.647,1.187,1.6v3.774H28.9v-4.045C28.9,197.683,27.742,196.675,26.2,196.675Zm-2.114,1.189h-.015a.176.176,0,0,0,.015-.024Z" transform="translate(-9.006 -184.198)" fill="#fff"/>
      <rect id="Rectangle_177" data-name="Rectangle 177" width="2.344" height="7.054" transform="translate(9.094 12.643)" fill="#fff"/>
      <path id="Tracé_73" data-name="Tracé 73" d="M14.543,175.377A14.543,14.543,0,1,0,29.087,189.92,14.56,14.56,0,0,0,14.543,175.377ZM22.256,196.5a1.133,1.133,0,0,1-1.148,1.119H7.88A1.133,1.133,0,0,1,6.733,196.5V183.116A1.133,1.133,0,0,1,7.88,182H21.108a1.134,1.134,0,0,1,1.148,1.119Z" transform="translate(0 -175.377)" fill="#fff"/>
      <path id="Tracé_74" data-name="Tracé 74" d="M16.613,191.154a1.222,1.222,0,1,0-.031,2.437H16.6a1.222,1.222,0,1,0,.016-2.437Z" transform="translate(-6.332 -181.912)" fill="#fff"/>
    </g>
  </g>
</svg>
